<?xml version="1.0" encoding="utf-8"?>
<!-- Generator: Adobe Illustrator 16.2.0, SVG Export Plug-In . SVG Version: 6.00 Build 0)  -->
<!DOCTYPE svg PUBLIC "-//W3C//DTD SVG 1.1//EN" "http://www.w3.org/Graphics/SVG/1.1/DTD/svg11.dtd">
<svg version="1.1" id="Layer_1" xmlns="http://www.w3.org/2000/svg" xmlns:xlink="http://www.w3.org/1999/xlink" x="0px" y="0px"
	 width="512px" height="512px" viewBox="0 0 512 512" enable-background="new 0 0 512 512" xml:space="preserve">
<path fill-rule="evenodd" clip-rule="evenodd" fill="#b8b1b7" d="M256.001,0.006c-141.369,0-255.99,114.63-255.99,255.999
	c0,141.369,114.621,255.99,255.99,255.99c128.883,0,235.484-95.285,253.338-219.253c1.708-8.456,2.51-17.174,2.371-26.153
	c0.175-3.522,0.278-7.045,0.278-10.584C511.989,114.636,397.368,0.006,256.001,0.006z M438.132,274.932
	c0.628,0.191,0.977,0.854,0.802,1.482c-0.173,0.505-0.627,0.835-1.116,0.835c-0.14,0-0.243,0-0.382-0.034
	c-31.071-9.502-69.465-10.811-82.263-11.247c-9.902,21.743-29.046,31.366-59.175,35.865v0.018
	c-3.696,0.539-7.566,1.028-11.579,1.446c11.962,7.532,15.38,16.982,15.38,42.473c0,25.508-0.35,28.943-0.279,34.803
	c0.139,9.623,14.262,14.262,13.739,17.347c-0.559,3.087-11.821,2.598-17.086,0.768c-14.96-5.231-13.462-17.663-13.462-17.663
	l-0.487-34.103c0,0,1.011-18.377-5.824-18.377v55.864c0,12.135,8.579,15.831,8.579,20.312c0,7.724-15.586-0.732-20.331-5.562
	c-7.288-7.306-6.451-22.841-6.312-35.082c0.175-11.855-0.104-37.8-0.104-37.8l-4.917,0.105c0,0,2.021,56.647-2.616,66.953
	c-5.999,13.251-24.096,17.818-24.096,11.751c0-4.045,4.428-2.737,6.904-11.856c2.126-7.724,1.395-65.453,1.395-65.453
	s-5.789,3.417-5.789,14.246c0,4.933-0.139,33.214-0.139,41.618c0,10.602-15.029,16.617-22.248,16.617
	c-3.662,0-8.231-0.175-8.231-2.126c0-4.901,13.74-7.76,13.74-17.941c0-8.84-0.175-31.559-0.175-31.559s-6.94,1.186-16.808,1.186
	c-24.933,0-32.848-15.885-36.58-24.794c-4.883-11.577-11.229-17.035-17.924-21.393c-4.149-2.667-5.092-5.806-0.314-6.731
	c22.073-4.132,27.722,25.038,42.438,29.693c10.532,3.314,24.028,1.884,30.757-2.477c0.872-8.927,7.324-16.633,12.659-20.678
	c-0.314-0.034-0.663-0.07-1.013-0.104c-36.857-3.731-58.792-16.721-70.195-37.435c-39.195,0.941-61.443,6.504-77.763,10.583
	c-1.15,0.296-2.335,0.593-3.451,0.872c-0.105,0.018-0.209,0.036-0.278,0.036c-0.559,0-1.013-0.35-1.152-0.907
	c-0.175-0.628,0.245-1.291,0.871-1.448c1.082-0.278,2.268-0.557,3.453-0.837c16.249-4.08,38.358-9.624,77.099-10.652
	c-1.08-2.146-2.057-4.342-2.928-6.644c-15.029-0.121-61.443,2.023-77.343,5.945c-0.105,0.052-0.211,0.052-0.281,0.052
	c-0.557,0-1.046-0.366-1.186-0.905c-0.139-0.646,0.245-1.291,0.873-1.466c15.762-3.871,61.059-6.033,77.1-5.998
	c-3.592-10.618-5.196-22.771-5.196-36.37c0-24.114,7.497-33.198,17.609-46.083c-7.741-27.496,2.755-46.274,2.755-46.274
	s16.215-3.356,46.867,18.586c16.634-7.095,60.919-7.724,81.913-1.569c12.867-8.525,36.406-20.573,45.89-17.189
	c2.582,4.14,8.125,16.197,3.383,42.699c3.208,5.822,19.98,18.203,20.016,53.212c-0.245,12.903-1.605,23.817-4.08,33.023
	c39.961-0.312,63.464,2.981,79.679,5.945c0.628,0.157,1.082,0.75,0.977,1.413c-0.139,0.559-0.626,0.977-1.186,0.977
	c-0.07,0-0.173,0-0.209-0.034c-16.215-2.981-39.718-6.277-79.959-5.894c-0.698,2.337-1.5,4.533-2.371,6.695
	C369.89,264.103,407.516,265.567,438.132,274.932z"/>
</svg>
