<?xml version="1.0" encoding="utf-8"?>
<!-- Generator: Adobe Illustrator 16.2.1, SVG Export Plug-In . SVG Version: 6.00 Build 0)  -->
<!DOCTYPE svg PUBLIC "-//W3C//DTD SVG 1.1//EN" "http://www.w3.org/Graphics/SVG/1.1/DTD/svg11.dtd">
<svg version="1.1" id="Layer_1" xmlns="http://www.w3.org/2000/svg" xmlns:xlink="http://www.w3.org/1999/xlink" x="0px" y="0px"
	 width="244.835px" height="244.721px" viewBox="0 0 244.835 244.721" enable-background="new 0 0 244.835 244.721"
	 xml:space="preserve">
<path fill-rule="evenodd" clip-rule="evenodd" fill="#b8b1b7" d="M122.42,0C54.812,0,0,54.811,0,122.413
	c0,67.612,54.812,122.422,122.42,122.422c67.612,0,122.415-54.811,122.415-122.422C244.835,54.811,190.032,0,122.42,0z
	 M182.538,147.646l-0.672,0.555l-0.491,0.74l-0.37,0.807l-0.181,0.983l-0.304,4.446l-0.064,4.747v23.258l-26.466,6.301l-3.926,0.674
	l-3.871,0.617l-7.613,0.982l-3.803,0.379l-3.748,0.304l-7.43,0.37l-4.726-0.251l-4.481-0.361l-2.214-0.312l-2.084-0.247
	l-4.116-0.674l-3.993-0.929l-1.963-0.499l-1.844-0.489l-3.62-1.234l-1.78-0.679l-1.657-0.613l-1.723-0.802l-1.593-0.811
	l-3.131-1.665l-1.534-0.983l-1.414-0.93l-2.761-2.036l-2.637-2.283l-1.3-1.167l-1.163-1.176l-2.274-2.591l-2.027-2.648l-2.02-2.838
	l-1.904-2.709l-1.78-2.847l-1.597-2.709l-1.532-2.838l-1.295-2.78l-1.228-2.838l-1.042-2.833l-0.979-2.961l-0.804-2.833l-0.672-2.97
	l-0.553-2.891l-0.429-2.966l-0.304-2.965l-0.189-2.962v-2.952l0.062-3.645l0.244-3.521l0.373-3.451l0.55-3.335l0.679-3.389
	l0.857-3.27l1.044-3.208l1.225-3.089l1.29-3.142l1.471-3.019l1.6-2.97l1.78-2.838l1.899-2.838l2.096-2.714l2.271-2.706l2.393-2.599
	l2.395-2.587l2.637-2.41l2.701-2.278l2.889-2.093l1.413-1.053l1.533-0.926l3.131-1.728l3.254-1.604l3.379-1.418l3.435-1.296
	l3.625-1.106l3.741-0.992l3.874-0.74l3.988-0.674l4.111-0.432l4.239-0.317l2.148-0.114h2.269l3.688,0.057l3.684,0.189l3.621,0.304
	l3.626,0.489l3.435,0.556l3.442,0.683l3.375,0.802l3.378,0.991l2.45,0.741l2.397,0.731l2.208,0.744l2.152,0.802l1.906,0.746
	l1.842,0.802l1.657,0.802l1.59,0.86l1.234,0.74l0.551,0.371l0.613,0.436l1.104,0.67l1.104,0.745l0.923,0.613l0.188,0.127
	l0.247,0.181l0.484,0.379l0.864,0.613l0.861,0.678l-15.229,15.115l-6.51,1.546l4.609-7.658l-0.619-0.736l-0.306-0.37l-0.243-0.309
	l-1.293-1.361l-1.468-1.48l-0.802-0.741l-0.736-0.674l-1.906-1.547l-1.963-1.476l-2.148-1.423l-2.273-1.357l-1.223-0.802
	l-1.229-0.67l-2.583-1.304l-1.41-0.608l-1.413-0.498l-1.533-0.494l-1.532-0.366l-1.604-0.498l-1.652-0.428l-1.721-0.37l-1.721-0.251
	l-3.867-0.185l-4.05-0.062l-2.824,0.062l-2.706,0.185l-2.64,0.305l-2.516,0.441l-2.518,0.55l-2.393,0.674l-2.396,0.807l-2.273,0.921
	l-2.271,0.925l-2.151,1.177l-2.146,1.291l-1.968,1.428l-2.021,1.415l-1.847,1.662l-1.839,1.793l-1.719,1.913l-1.785,1.855
	l-1.657,2.032L82.828,80.4l-1.41,2.229l-1.353,2.212l-1.163,2.353l-1.108,2.397l-0.921,2.591l-0.919,2.538l-0.738,2.714
	l-0.674,2.714l-0.434,2.896l-0.428,2.895l-0.306,3.027l-0.187,3.085v3.212l0.066,3.384l0.183,3.402l0.306,3.331l0.551,3.323
	l0.555,3.151l0.8,3.212l0.914,3.081l1.049,3.089l1.163,2.961l1.292,2.953l1.41,2.842l1.598,2.842l1.657,2.715l1.842,2.709
	l1.969,2.587l2.144,2.595l2.151,2.463l2.273,2.406l2.393,2.226l2.518,2.093l2.519,1.851l2.763,1.798l2.759,1.595l3.014,1.485
	l3.003,1.234l3.138,1.11l3.19,0.925l3.378,0.864l3.373,0.613l3.627,0.502l3.618,0.299l3.812,0.243l2.086-0.119l0.983-0.062h1.042
	l0.921-0.115l0.983-0.062l1.842-0.127l0.368-0.128l0.059-0.057h0.122h0.247l0.866-0.124l1.655-0.251l1.536-0.362l1.41-0.378
	l1.229-0.428l1.284-0.375l2.4-0.736l0.491-0.251l0.243-0.123l0.123-0.057h0.183l1.11-0.375l2.083-0.736v-30.789l-27.871,1.546
	l14.919-8.209h38.988L182.538,147.646z"/>
</svg>
