<?xml version="1.0" encoding="utf-8"?>
<!-- Generator: Adobe Illustrator 16.2.0, SVG Export Plug-In . SVG Version: 6.00 Build 0)  -->
<!DOCTYPE svg PUBLIC "-//W3C//DTD SVG 1.1//EN" "http://www.w3.org/Graphics/SVG/1.1/DTD/svg11.dtd">
<svg version="1.1" id="Layer_1" xmlns="http://www.w3.org/2000/svg" xmlns:xlink="http://www.w3.org/1999/xlink" x="0px" y="0px"
	 width="512px" height="512px" viewBox="0 0 512 512" enable-background="new 0 0 512 512" xml:space="preserve">
<path fill-rule="evenodd" clip-rule="evenodd" fill="#b8b1b7" d="M255.509,0.037C114.415,0.037,0.037,114.416,0.037,255.5
	c0,141.085,114.377,255.463,255.472,255.463c141.076,0,255.454-114.378,255.454-255.463
	C510.963,114.416,396.585,0.037,255.509,0.037z M205.856,354.565l-0.018,0.01c-5.509,5.48-13.03,8.834-21.394,8.834
	c-8.354,0-15.858-3.364-21.365-8.844c0,0.01,0,0.01,0,0.01l-0.009-0.01c0,0,0,0,0.009,0c-5.49-5.489-8.872-12.957-8.872-21.273
	c0-8.326,3.382-15.82,8.872-21.319v0.01c5.507-5.49,13.011-8.862,21.365-8.862c8.364,0,15.876,3.383,21.394,8.862v-0.01l0.008,0.01
	c0,0,0,0-0.008,0c5.517,5.507,8.872,12.984,8.89,21.31C214.71,341.6,211.355,349.076,205.856,354.565z M260.833,363.687v-0.083
	h-0.01c-0.046-28.491-11.154-55.383-31.245-75.446c-20.1-20.127-46.955-31.281-75.343-31.299V213.37
	c41.429,0.027,78.938,16.875,106.173,44.117c27.224,27.244,44.061,64.771,44.098,106.2H260.833z M338.375,363.687
	c-0.065-101.588-82.57-184.223-184.066-184.296V135.92c62.767,0.027,119.618,25.561,160.87,66.822
	c41.243,41.272,66.768,98.161,66.795,160.945H338.375z"/>
</svg>
