<?xml version="1.0" encoding="utf-8"?>
<!-- Generator: Adobe Illustrator 16.2.1, SVG Export Plug-In . SVG Version: 6.00 Build 0)  -->
<!DOCTYPE svg PUBLIC "-//W3C//DTD SVG 1.1//EN" "http://www.w3.org/Graphics/SVG/1.1/DTD/svg11.dtd">
<svg version="1.1" id="Layer_1" xmlns="http://www.w3.org/2000/svg" xmlns:xlink="http://www.w3.org/1999/xlink" x="0px" y="0px"
	 width="245.76px" height="245.76px" viewBox="0 0 245.76 245.76" enable-background="new 0 0 245.76 245.76" xml:space="preserve">
<path fill-rule="evenodd" clip-rule="evenodd" fill="#949191" d="M243.447,139.754L116.091,12.508
	c-3.047-3.044-9.044-5.856-13.34-6.246l-68.883-6.27c-4.292-0.39-10.296,1.781-13.34,4.829L4.806,20.528
	c-3.041,3.045-5.227,9.044-4.839,13.323l6.134,69c0.377,4.288,3.184,10.281,6.229,13.329l127.359,127.245
	c3.044,3.042,8.027,3.042,11.078,0l92.681-92.604C246.491,147.777,246.491,142.795,243.447,139.754z M53.226,53.663
	c-6.639,6.643-17.386,6.633-24.018,0c-6.642-6.626-6.652-17.371-0.01-24.004c6.631-6.626,17.389-6.62,24.028,0.01
	C59.861,36.299,59.854,47.047,53.226,53.663z"/>
</svg>
