<?xml version="1.0" encoding="utf-8"?>
<!-- Generator: Adobe Illustrator 16.2.0, SVG Export Plug-In . SVG Version: 6.00 Build 0)  -->
<!DOCTYPE svg PUBLIC "-//W3C//DTD SVG 1.1//EN" "http://www.w3.org/Graphics/SVG/1.1/DTD/svg11.dtd">
<svg version="1.1" id="Layer_1" xmlns="http://www.w3.org/2000/svg" xmlns:xlink="http://www.w3.org/1999/xlink" x="0px" y="0px"
	 width="512px" height="512px" viewBox="0 0 512 512" enable-background="new 0 0 512 512" xml:space="preserve">
<path fill-rule="evenodd" clip-rule="evenodd" fill="#b8b1b7" d="M254.995-0.073C114.122-0.073-0.079,114.127-0.079,255
	s114.201,255.074,255.074,255.074c140.892,0,255.083-114.201,255.083-255.074S395.887-0.073,254.995-0.073z M364.325,260.718
	c-23.491,95.266-181.113,135.682-253.625,36.773c27.77,26.525,76.136,28.859,106.812-2.858
	c-17.985,2.637-31.072-15.026-8.974-24.562c-19.876,2.176-30.925-8.403-35.454-17.385c4.658-4.879,9.795-7.148,19.738-7.804
	c-21.757-5.146-29.791-15.79-32.254-28.711c6.042-1.449,13.595-2.684,17.728-2.13c-19.065-9.972-25.686-24.968-24.635-36.248
	c34.052,12.654,55.744,22.818,73.886,32.557c6.466,3.451,13.679,9.667,21.813,17.552c10.358-27.401,23.158-55.652,45.073-69.662
	c-0.36,3.183-2.066,6.134-4.317,8.559c6.226-5.653,14.296-9.545,22.504-10.67c-0.941,6.169-9.812,9.638-15.172,11.658
	c4.058-1.264,25.631-10.892,27.974-5.405c2.785,6.236-14.877,9.113-17.883,10.191c-2.242,0.748-4.483,1.578-6.696,2.473
	c27.346-2.721,53.439,19.848,61.056,47.858c0.544,2.02,1.088,4.251,1.578,6.604c9.998,3.726,28.112-0.185,33.95-3.773
	c-4.224,9.989-15.19,17.35-31.368,18.688c7.794,3.245,22.486,5.026,32.631,3.302C392.271,254.613,381.923,260.866,364.325,260.718z"
	/>
</svg>
