<?xml version="1.0" encoding="utf-8"?>
<!-- Generator: Adobe Illustrator 16.2.0, SVG Export Plug-In . SVG Version: 6.00 Build 0)  -->
<!DOCTYPE svg PUBLIC "-//W3C//DTD SVG 1.1//EN" "http://www.w3.org/Graphics/SVG/1.1/DTD/svg11.dtd">
<svg version="1.1" id="Layer_1" xmlns="http://www.w3.org/2000/svg" xmlns:xlink="http://www.w3.org/1999/xlink" x="0px" y="0px"
	 width="512px" height="512px" viewBox="0 0 512 512" enable-background="new 0 0 512 512" xml:space="preserve">
<path fill-rule="evenodd" clip-rule="evenodd" fill="#949191" d="M-1.083,511.097V69.782h52.549V42.23
	c0-27.126,17.116-43.328,45.771-43.328c28.662,0,45.771,16.201,45.771,43.328v27.551h31.008V42.23
	c0-27.126,17.108-43.328,45.77-43.328c28.656,0,45.764,16.201,45.764,43.328v27.551h31.008V42.23
	c0-27.126,17.115-43.328,45.771-43.328c28.662,0,45.771,16.201,45.771,43.328v27.551h51.986v441.315H-1.083z M118.493,42.23
	c0-13.389-6.132-18.812-21.256-18.812c-15.131,0-21.264,5.423-21.264,18.812v73.692c0,13.382,6.132,18.812,21.264,18.812
	c15.125,0,21.256-5.431,21.256-18.812V42.23z M241.042,42.23c0-13.389-6.132-18.812-21.257-18.812
	c-15.131,0-21.264,5.423-21.264,18.812v73.692c0,13.382,6.132,18.812,21.264,18.812c15.125,0,21.257-5.431,21.257-18.812V42.23z
	 M363.591,42.23c0-13.389-6.132-18.812-21.264-18.812c-15.125,0-21.256,5.423-21.256,18.812v73.692
	c0,13.382,6.131,18.812,21.256,18.812c15.132,0,21.264-5.431,21.264-18.812V42.23z M403.319,167.85H35.681v306.471h367.639V167.85z
	 M149.918,381.691c19.127,0,31.509-9.852,31.509-22.802c0-17.734-11.255-25.052-45.868-27.021v-30.97
	c23.915-1.678,37.988-8.154,37.988-22.802c0-10.124-5.345-16.877-25.036-16.877c-12.667,0-25.049,3.648-36.596,9.281l-4.211-30.956
	c15.194-7.046,33.207-9.295,50.371-9.295c36.291,0,57.395,16.892,57.395,38.287c0,21.104-13.496,34.625-38.253,43.064v0.564
	c27.562,7.888,43.32,20.825,43.32,44.205c0,36.86-32.637,56.286-74.558,56.286c-15.208,0-31.245-3.092-43.342-7.882l4.225-30.969
	C121.771,379.442,134.146,381.691,149.918,381.691z M322.651,233.075v176.766H284.94v-130.89l-30.959,11.815l-4.218-30.962
	l54.033-26.729H322.651z"/>
</svg>
