<?xml version="1.0" encoding="utf-8"?>
<!-- Generator: Adobe Illustrator 16.2.0, SVG Export Plug-In . SVG Version: 6.00 Build 0)  -->
<!DOCTYPE svg PUBLIC "-//W3C//DTD SVG 1.1//EN" "http://www.w3.org/Graphics/SVG/1.1/DTD/svg11.dtd">
<svg version="1.1" id="Layer_1" xmlns="http://www.w3.org/2000/svg" xmlns:xlink="http://www.w3.org/1999/xlink" x="0px" y="0px"
	 width="512px" height="512px" viewBox="0 0 512 512" enable-background="new 0 0 512 512" xml:space="preserve">
<path fill-rule="evenodd" clip-rule="evenodd" fill="#55a7df" d="M256,0.122C114.673,0.122,0.104,114.691,0.104,256.018
	c0,141.327,114.569,255.861,255.896,255.861c141.329,0,255.896-114.534,255.896-255.861C511.896,114.691,397.329,0.122,256,0.122z
	 M369.545,291.281c-17.631,20.164-60.738,43.73-104.399,30.542c4.72,44.771-24.955,87.496-74.586,73.197
	c-4.615-1.353-12.217-4.199-14.923-7.809c-6.838-9.059-2.36-27.453-2.152-41.232c9.336-0.277,15.444,10.204,27.001,6.42
	c15.271-5.032,10.482-51.956,9.962-70.316c-0.833-29.12-1.39-57.198,0-79.55c14.056-4.581,35.54-2.637,50.43,0
	c2.116,24.121-0.73,53.241,1.421,77.398c52.548,23.149,99.054-25.442,71.011-72.435c-16.729-28.148-54.177-40.747-89.474-38.352
	c-33.319,2.222-63.272,23.324-72.47,50.43c-6.143,18.152-0.172,38.144,9.926,49.701c-4.72,6.315-10.029,11.037-17.04,17.042
	c-4.271,3.679-14.579,13.188-20.583,12.807c-7.218-0.487-12.494-14.404-15.618-22.041c-3.678-8.849-7.113-20.753-7.808-29.118
	c-6.733-80.591,51.992-119.427,127.826-122.9c52.061-2.36,95.827,17.042,120.817,46.195c12.771,14.959,23.046,35.368,23.393,59.663
	C392.661,256.156,382.837,276.147,369.545,291.281z"/>
</svg>
